<svg width="1157" height="445" viewBox="0 0 1157 445" fill="none" xmlns="http://www.w3.org/2000/svg">
<path d="M265.46 421.9C250.16 421.9 241.4 415.24 241.4 400.18C241.4 385.12 250.16 378.46 265.46 378.46C278.48 378.46 287.24 383.2 289.1 394.18L280.16 394.12C278.6 388.18 273.98 385.66 265.46 385.66C253.76 385.66 250.34 391.12 250.34 400.12C250.34 409.18 253.76 414.64 265.46 414.64C273.98 414.64 278.72 411.94 280.16 406H289.16C287.36 417.1 278.54 421.9 265.46 421.9ZM314.419 422.2C301.519 422.2 294.379 416.86 294.379 404.86C294.379 392.86 301.519 387.58 314.419 387.58C327.319 387.58 334.399 392.86 334.399 404.86C334.399 416.86 327.259 422.2 314.419 422.2ZM314.419 415.72C323.299 415.72 326.479 412 326.479 404.86C326.479 397.72 323.299 394.06 314.419 394.06C305.539 394.06 302.299 397.72 302.299 404.86C302.299 412 305.539 415.72 314.419 415.72ZM357.363 422.2C347.163 422.2 340.443 419.2 338.463 411.16H346.563C348.003 415.3 351.903 416.14 357.363 416.14C362.883 416.14 365.823 414.58 365.823 411.4C365.823 408.52 364.203 407.26 360.783 407.26H351.903V402.04H360.303C363.543 402.04 365.163 400.84 365.163 398.26C365.163 394.72 362.043 393.52 357.123 393.52C351.663 393.52 348.483 394.84 347.223 397.6H339.663C341.343 389.98 348.963 387.7 357.123 387.7C367.563 387.7 373.023 390.82 373.023 397.24C373.023 400.54 371.403 402.58 368.523 403.78V404.14C371.643 405.28 373.983 407.56 373.983 411.7C373.983 418.18 368.943 422.2 357.363 422.2ZM377.838 429.64L377.718 414.34H379.038C383.478 414.34 384.378 409.84 384.978 404.74C385.578 399.46 385.638 394.42 385.758 389.08H415.638V414.34H420.738C420.618 415.78 420.498 418 420.438 420.4L420.198 429.64H413.418V421H384.738L384.618 429.64H377.838ZM388.878 414.34H407.778V395.62H392.658C392.418 398.98 392.298 401.98 391.938 405.1C391.518 409.3 390.618 412.42 388.878 414.34ZM443.641 387.82C454.261 387.82 460.621 391.3 460.621 401.98V421H454.201L453.541 416.44C450.781 420.16 445.381 422.2 439.621 422.2C430.981 422.2 425.521 418.72 425.521 411.16C425.521 402.52 433.321 400.96 441.301 400.96H453.121C453.001 395.8 450.181 393.64 443.461 393.64C438.061 393.64 434.461 395.26 433.501 398.14H425.761C427.741 391.24 434.101 387.82 443.641 387.82ZM441.181 416.56C446.761 416.56 453.121 414.58 453.121 407.56V405.76H443.281C437.641 405.76 433.321 406.36 433.321 411.04C433.321 414.76 436.081 416.56 441.181 416.56ZM489.039 384.46C480.459 384.46 475.119 382.12 474.999 375.34H482.679C482.799 378.52 484.299 380.14 489.039 380.14C493.839 380.14 495.279 378.52 495.459 375.34H503.199C503.079 382.12 497.679 384.46 489.039 384.46ZM470.799 421V389.08H478.539V416.68H479.859C484.359 407.38 488.559 398.92 493.659 389.08H507.219V421H499.479V393.4H498.159C493.959 402.22 489.459 411.22 484.419 421H470.799ZM552.249 422.2C539.469 422.2 532.269 416.86 532.269 404.86C532.269 392.8 539.469 387.46 552.249 387.46C563.889 387.46 570.489 391.6 572.049 400.78H563.949C562.869 396.1 559.209 393.94 552.249 393.94C543.369 393.94 540.189 397.66 540.189 404.86C540.189 412.06 543.369 415.72 552.249 415.72C559.209 415.72 562.869 413.56 563.949 408.88H572.049C570.489 418.12 563.889 422.2 552.249 422.2ZM608.585 404.2C611.585 404.92 614.165 407.26 614.165 411.7C614.165 418.12 610.085 421 601.745 421H579.725V389.08H601.805C609.185 389.08 613.385 391.18 613.385 397.48C613.385 401.02 611.225 403 608.585 403.9V404.2ZM605.405 398.32C605.405 396.1 604.385 394.54 601.265 394.54H587.585V402.16H601.265C604.385 402.16 605.405 400.54 605.405 398.32ZM601.565 415.36C604.625 415.36 606.005 413.56 606.005 411.46C606.005 409.12 604.805 407.38 601.625 407.38H587.585V415.36H601.565ZM639.614 422.2C626.714 422.2 619.574 416.86 619.574 404.86C619.574 392.86 626.714 387.58 639.614 387.58C652.514 387.58 659.594 392.86 659.594 404.86C659.594 416.86 652.454 422.2 639.614 422.2ZM639.614 415.72C648.494 415.72 651.674 412 651.674 404.86C651.674 397.72 648.494 394.06 639.614 394.06C630.734 394.06 627.494 397.72 627.494 404.86C627.494 412 630.734 415.72 639.614 415.72ZM685.738 384.46C677.158 384.46 671.818 382.12 671.698 375.34H679.378C679.498 378.52 680.998 380.14 685.738 380.14C690.538 380.14 691.978 378.52 692.158 375.34H699.898C699.778 382.12 694.378 384.46 685.738 384.46ZM667.498 421V389.08H675.238V416.68H676.558C681.058 407.38 685.258 398.92 690.358 389.08H703.918V421H696.178V393.4H694.858C690.658 402.22 686.158 411.22 681.118 421H667.498ZM731.248 421V389.08H766.108V421H758.248V395.86H739.108V421H731.248ZM803.307 389.08H811.947L800.367 418.78C795.447 431.56 793.647 433 783.447 433H777.447V426.7H783.447C789.207 426.7 789.987 425.26 791.667 421H785.307L772.107 389.08H781.047C784.647 398.2 788.007 407.32 791.187 415.84H793.587L803.307 389.08ZM815.123 395.86V389.08H849.863V395.86H836.423V421H828.563V395.86H815.123ZM876.929 398.08C885.389 398.08 890.609 401.5 890.609 409.54C890.609 417.58 885.389 421 876.929 421H856.229V389.08H864.089V398.08H876.929ZM876.689 414.88C881.189 414.88 882.749 412.9 882.749 409.54C882.749 406.18 881.189 404.2 876.689 404.2H864.089V414.88H876.689Z" fill="white"/>
<path d="M110.285 338.355L0 0H91.5522L160.753 232.819L220.569 0H309.973L371.259 225.997L438.99 0H521.534L413.059 338.355H328.366L263.839 111.868L202.93 338.355H110.285Z" fill="white"/>
<path d="M932.821 207.377L789.368 0H893.547L976.807 124.607L1061.46 0H1156.26L1016.76 207.377V338.355H932.784V207.377H932.821Z" fill="white"/>
<path d="M646.971 5.31416L616.14 4.59802L472.083 336.394H581.652L646.971 5.31416Z" fill="white"/>
<path d="M687.112 5.31428L717.944 4.59814L862 336.395H752.431L687.112 5.31428Z" fill="white"/>
<path d="M686.66 134.37H667.06H647.423L639.32 189.474L667.249 189.927H667.663L694.763 189.173L686.66 134.37Z" fill="white"/>
</svg>
