<svg width="60" height="60" viewBox="0 0 60 60" fill="none" xmlns="http://www.w3.org/2000/svg">
<g clip-path="url(#clip0_428_10)">
<path d="M20 58.75C20 59.44 19.44 60 18.75 60H8.75C3.925 60 0 56.075 0 51.25V8.75C0 3.925 3.925 0 8.75 0H18.75C19.44 0 20 0.56 20 1.25C20 1.94 19.44 2.5 18.75 2.5H8.75C5.305 2.5 2.5 5.3025 2.5 8.75V51.25C2.5 54.6975 5.305 57.5 8.75 57.5H18.75C19.44 57.5 20 58.06 20 58.75ZM60 30C60 28.8175 59.54 27.705 58.7 26.8675L47.13 15.365C46.64 14.8825 45.85 14.8825 45.3625 15.37C44.875 15.86 44.8775 16.6525 45.3675 17.1375C45.3675 17.1375 56.98 28.715 57.0125 28.7525H13.75C13.06 28.7525 12.5 29.3125 12.5 30.0025C12.5 30.6925 13.06 31.2525 13.75 31.2525H57.0075C56.98 31.285 45.3675 42.8675 45.3675 42.8675C44.8775 43.3525 44.875 44.1475 45.3625 44.635C45.6075 44.8825 45.9275 45.0025 46.2475 45.0025C46.565 45.0025 46.885 44.88 47.13 44.6375L58.7 33.1275C59.5375 32.2925 59.995 31.185 59.9975 30.005L60 30Z" fill="black"/>
</g>
<defs>
<clipPath id="clip0_428_10">
<rect width="60" height="60" fill="white"/>
</clipPath>
</defs>
</svg>
