<svg width="60" height="60" viewBox="0 0 60 60" fill="none" xmlns="http://www.w3.org/2000/svg">
<g clip-path="url(#clip0_428_14)">
<path d="M30 0C19.9 0 10.5275 5.165 5 13.5325V0H2.5V13.75C2.5 15.8175 4.1825 17.5 6.25 17.5H20V15H7.02C12.0775 7.2725 20.705 2.5 30 2.5C45.1625 2.5 57.5 14.8375 57.5 30C57.5 45.1625 45.1625 57.5 30 57.5C14.8375 57.5 2.5 45.1625 2.5 30H0C0 46.5425 13.4575 60 30 60C46.5425 60 60 46.5425 60 30C60 13.4575 46.5425 0 30 0Z" fill="black"/>
<path d="M27.5 15V30.5175L36.615 39.635L38.385 37.865L30 29.4825V15H27.5Z" fill="black"/>
</g>
<defs>
<clipPath id="clip0_428_14">
<rect width="60" height="60" fill="white"/>
</clipPath>
</defs>
</svg>
