<svg width="60" height="60" viewBox="0 0 60 60" fill="none" xmlns="http://www.w3.org/2000/svg">
<path d="M30 30C38.2725 30 45 23.2725 45 15C45 6.7275 38.2725 0 30 0C21.7275 0 15 6.7275 15 15C15 23.2725 21.7275 30 30 30ZM30 2.5C36.8925 2.5 42.5 8.1075 42.5 15C42.5 21.8925 36.8925 27.5 30 27.5C23.1075 27.5 17.5 21.8925 17.5 15C17.5 8.1075 23.1075 2.5 30 2.5ZM52.5 57.5V58.75C52.5 59.44 51.94 60 51.25 60C50.56 60 50 59.44 50 58.75V57.5C50 46.4725 41.0275 37.5 30 37.5C18.9725 37.5 10 46.4725 10 57.5V58.75C10 59.44 9.44 60 8.75 60C8.06 60 7.5 59.44 7.5 58.75V57.5C7.5 45.095 17.595 35 30 35C42.405 35 52.5 45.095 52.5 57.5Z" fill="black"/>
</svg>
