<svg width="134" height="111" viewBox="0 0 134 111" fill="none" xmlns="http://www.w3.org/2000/svg">
<path d="M107.72 0H25.51C11.4212 0 0 11.4212 0 25.51V85.43C0 99.5188 11.4212 110.94 25.51 110.94H107.72C121.809 110.94 133.23 99.5188 133.23 85.43V25.51C133.23 11.4212 121.809 0 107.72 0Z" fill="#266B73"/>
<path d="M61.96 15.95L54.81 15.79L21.41 95.16H46.82L61.96 15.95Z" fill="white"/>
<path d="M71.26 15.95L78.41 15.79L111.81 95.16H86.4L71.26 15.95Z" fill="white"/>
<path d="M71.16 46.83H66.61H62.06L60.18 60.01L66.65 60.12H66.75L73.04 59.94L71.16 46.83Z" fill="white"/>
</svg>
