<svg width="84" height="68" viewBox="0 0 84 68" fill="none" xmlns="http://www.w3.org/2000/svg">
<g clip-path="url(#clip0_109_152)">
<path d="M67.9162 0H16.0838C7.20095 0 0 7.00057 0 15.6362V52.3638C0 60.9994 7.20095 68 16.0838 68H67.9162C76.7991 68 84 60.9994 84 52.3638V15.6362C84 7.00057 76.7991 0 67.9162 0Z" fill="#0C2461"/>
<path d="M39.0651 9.77644L34.5634 9.67224L13.5051 58.3216H29.5195L39.0651 9.77644Z" fill="white"/>
<path d="M44.9287 9.77644L49.4367 9.67224L70.495 58.3216H54.4806L44.9287 9.77644Z" fill="white"/>
<path d="M44.8719 28.7042H41.9969H39.1282L37.9429 36.7766L42.0284 36.8502H42.0852L46.051 36.7399L44.8719 28.7042Z" fill="white"/>
</g>
<defs>
<clipPath id="clip0_109_152">
<rect width="84" height="68" fill="white"/>
</clipPath>
</defs>
</svg>
